<svg xmlns="http://www.w3.org/2000/svg" width="7" height="8" fill="none" viewBox="0 0 7 8"><path fill="#fff" d="M4.73637 0.876709C4.37495 0.901965 3.95252 1.13569 3.70635 1.44005C3.48179 1.71615 3.29706 2.12624 3.36909 2.52477C3.76397 2.53719 4.172 2.2979 4.40842 1.9884C4.62959 1.70031 4.79696 1.29279 4.73637 0.876709Z"/><path fill="#fff" d="M6.1647 3.17461C5.81769 2.73499 5.33001 2.47986 4.86945 2.47986C4.26144 2.47986 4.00425 2.77394 3.58182 2.77394C3.14626 2.77394 2.81535 2.48071 2.28953 2.48071C1.77304 2.48071 1.22308 2.79963 0.874371 3.34499C0.384149 4.11294 0.468042 5.55682 1.26248 6.78666C1.54678 7.22672 1.92642 7.72156 2.423 7.72585C2.86492 7.73013 2.98949 7.43947 3.58818 7.43647C4.18687 7.43305 4.30042 7.7297 4.74149 7.72499C5.23849 7.72114 5.63889 7.17278 5.92319 6.73273C6.12699 6.41724 6.20283 6.25842 6.36087 5.90227C5.21137 5.46008 5.02706 3.80858 6.1647 3.17461Z"/></svg>