<svg width="22" height="21" viewBox="0 0 22 21" fill="none" xmlns="http://www.w3.org/2000/svg">
<path d="M20 10H18V4.238L10.072 11.338L2 4.216V16H12V18H1C0.734784 18 0.48043 17.8946 0.292893 17.7071C0.105357 17.5196 0 17.2652 0 17V1C0 0.734784 0.105357 0.48043 0.292893 0.292893C0.48043 0.105357 0.734784 0 1 0H19C19.2652 0 19.5196 0.105357 19.7071 0.292893C19.8946 0.48043 20 0.734784 20 1V10ZM2.511 2L10.061 8.662L17.502 2H2.511ZM17.5 18.75L14.855 20.14L15.36 17.195L13.22 15.109L16.177 14.679L17.5 12L18.823 14.68L21.78 15.11L19.64 17.195L20.145 20.141L17.5 18.75Z" fill="black"/>
</svg>
