<svg width="19" height="21" viewBox="0 0 19 21" fill="none" xmlns="http://www.w3.org/2000/svg">
<path d="M3.883 16.653C3.583 16.453 3.325 16.198 3.02299 15.837C2.86624 15.6452 2.7109 15.4522 2.557 15.258C2.094 14.683 1.802 14.418 1.5 14.309C1.25029 14.2194 1.04643 14.0342 0.933252 13.7943C0.820074 13.5543 0.806852 13.2792 0.896495 13.0295C0.986138 12.7798 1.1713 12.576 1.41126 12.4628C1.65121 12.3496 1.92629 12.3364 2.176 12.426C2.928 12.696 3.437 13.161 4.123 14.014C4.029 13.897 4.463 14.441 4.556 14.553C4.746 14.78 4.88599 14.918 4.996 14.991C5.2 15.128 5.58299 15.187 6.146 15.131C6.16899 14.749 6.24 14.378 6.34799 14.036C3.37999 13.31 1.7 11.396 1.7 7.64002C1.7 6.40002 2.06999 5.28402 2.758 4.34802C2.53999 3.45402 2.573 2.37302 3.06 1.15602C3.11526 1.01836 3.20047 0.894714 3.30943 0.794052C3.4184 0.693389 3.54839 0.618231 3.69 0.574023C3.771 0.550023 3.81699 0.539023 3.89799 0.527023C4.70099 0.404023 5.83499 0.697023 7.31299 1.62302C8.19379 1.41711 9.09545 1.31375 10 1.31502C10.912 1.31502 11.818 1.41902 12.684 1.62302C14.161 0.690023 15.297 0.397023 16.106 0.527023C16.191 0.540023 16.263 0.557023 16.324 0.577023C16.4628 0.6228 16.5899 0.698457 16.6964 0.798666C16.8028 0.898875 16.886 1.0212 16.94 1.15702C17.427 2.37302 17.46 3.45402 17.242 4.34702C17.933 5.28302 18.3 6.39202 18.3 7.64002C18.3 11.397 16.626 13.305 13.658 14.032C13.783 14.447 13.848 14.911 13.848 15.412C13.8481 16.3174 13.8441 17.2227 13.836 18.128C14.0606 18.177 14.2614 18.3019 14.4047 18.4816C14.548 18.6613 14.625 18.8849 14.6228 19.1147C14.6206 19.3446 14.5392 19.5667 14.3925 19.7436C14.2457 19.9205 14.0425 20.0414 13.817 20.086C12.678 20.314 11.834 19.554 11.834 18.561L11.836 18.115L11.841 17.41C11.846 16.702 11.848 16.072 11.848 15.412C11.848 14.715 11.665 14.26 11.423 14.052C10.762 13.482 11.097 12.397 11.963 12.3C14.93 11.967 16.3 10.818 16.3 7.64002C16.3 6.68502 15.988 5.89602 15.387 5.23602C15.2604 5.09727 15.1754 4.92565 15.1418 4.74083C15.1082 4.55602 15.1273 4.36547 15.197 4.19102C15.363 3.77702 15.434 3.23402 15.293 2.57702L15.283 2.58002C14.792 2.71902 14.173 3.02002 13.425 3.52902C13.3044 3.61088 13.1673 3.66537 13.0234 3.68869C12.8795 3.71201 12.7323 3.70359 12.592 3.66402C11.7479 3.43031 10.8758 3.31289 10 3.31502C9.10999 3.31502 8.228 3.43402 7.408 3.66502C7.26821 3.70428 7.12156 3.71263 6.97823 3.68949C6.8349 3.66635 6.69832 3.61227 6.578 3.53102C5.826 3.02402 5.204 2.72402 4.71 2.58402C4.566 3.23702 4.637 3.77802 4.802 4.19102C4.8718 4.36538 4.8911 4.55587 4.85767 4.74068C4.82425 4.9255 4.73945 5.09716 4.613 5.23602C4.016 5.89002 3.7 6.69402 3.7 7.64002C3.7 10.812 5.071 11.968 8.022 12.3C8.887 12.397 9.22299 13.477 8.566 14.048C8.374 14.216 8.137 14.78 8.137 15.412V18.562C8.137 19.548 7.302 20.287 6.177 20.09C5.94876 20.0499 5.74153 19.9319 5.59071 19.7559C5.4399 19.58 5.35486 19.3572 5.35014 19.1255C5.34541 18.8938 5.4213 18.6677 5.56482 18.4857C5.70834 18.3038 5.91058 18.1774 6.137 18.128V17.138C5.227 17.199 4.475 17.05 3.883 16.653Z" fill="black"/>
</svg>
