<svg width="7" height="7" viewBox="0 0 7 7" fill="none" xmlns="http://www.w3.org/2000/svg">
<path d="M5.2591 2.46467C4.47157 2.01965 3.20755 1.30505 1.24697 0.195955C1.11478 0.107759 0.9627 0.0962011 0.831299 0.141135L4.19511 3.53963L5.2591 2.46467Z" fill="#32BBFF"/>
<path d="M0.831303 0.141113C0.806675 0.149541 0.78271 0.159708 0.75979 0.171988C0.614684 0.251288 0.508057 0.403883 0.508057 0.596876V6.48233C0.508057 6.67533 0.614671 6.82792 0.75979 6.90721C0.78267 6.91947 0.806622 6.92968 0.831224 6.93816L4.19512 3.5396L0.831303 0.141113Z" fill="#32BBFF"/>
<path d="M4.19519 3.53955L0.831299 6.93811C0.96274 6.98338 1.11482 6.9727 1.24705 6.88322C3.14839 5.80756 4.39816 5.10143 5.1948 4.65262C5.21698 4.64003 5.23871 4.62772 5.26018 4.61554L4.19519 3.53955Z" fill="#32BBFF"/>
<path d="M0.508057 3.53955V6.48228C0.508057 6.67527 0.614671 6.82787 0.75979 6.90715C0.78267 6.91942 0.806622 6.92963 0.831224 6.93811L4.19512 3.53955H0.508057Z" fill="#2C9FD9"/>
<path d="M1.24719 0.195871C1.09022 0.0911541 0.905115 0.0941372 0.76001 0.171939L4.14428 3.59111L5.25931 2.46459C4.47179 2.01957 3.20777 1.30497 1.24719 0.195871Z" fill="#29CC5E"/>
<path d="M4.1443 3.48804L0.76001 6.90719C0.905128 6.98498 1.09022 6.98948 1.24719 6.88326C3.14854 5.8076 4.3983 5.10147 5.19495 4.65266C5.21712 4.64007 5.23885 4.62776 5.26033 4.61558L4.1443 3.48804Z" fill="#D93F21"/>
<path d="M6.66367 3.53957C6.66367 3.3765 6.58223 3.21193 6.42081 3.12067C6.42081 3.12067 6.11893 2.9505 5.19363 2.42761L4.09302 3.53957L5.1947 4.65262C6.10985 4.13349 6.42079 3.95845 6.42079 3.95845C6.58223 3.86721 6.66367 3.70264 6.66367 3.53957Z" fill="#FFD500"/>
<path d="M6.42081 3.95845C6.58223 3.86719 6.66367 3.70262 6.66367 3.53955H4.09302L5.1947 4.65261C6.10986 4.13349 6.42081 3.95845 6.42081 3.95845Z" fill="#FFAA00"/>
</svg>
