<svg width="85" height="49" viewBox="0 0 85 49" fill="none" xmlns="http://www.w3.org/2000/svg">
<g clip-path="url(#clip0_203_125)">
<path d="M7.42529 4.03802H0V0.0183105C6.75534 0.0183105 12.4778 0.0183105 19.289 0.0183105V4.03802H11.8637V23.4666H7.42529V4.03802Z" fill="black"/>
<path d="M30.5665 6.94113H34.4746V23.4666H30.6223L30.4269 21.0659C29.4778 23.02 26.9097 23.9411 25.0673 23.969C20.2102 23.997 16.5813 20.9822 16.5813 15.1759C16.5813 9.48136 20.3777 6.4945 25.179 6.55033C27.3843 6.55033 29.5058 7.58317 30.4269 9.23013L30.5665 6.94113ZM20.6568 15.1759C20.6568 18.3303 22.8342 20.2006 25.5419 20.2006C31.9622 20.2006 31.9622 10.1792 25.5419 10.1792C22.8342 10.2071 20.6568 12.0495 20.6568 15.1759Z" fill="black"/>
<path d="M48.9344 23.4668V14.6179C48.9344 12.4405 47.7899 10.4586 45.5567 10.4586C43.3514 10.4586 42.0395 12.4405 42.0395 14.6179V23.4668H37.9639V6.91342H41.7603L42.0674 8.92328C42.9327 7.2484 44.8588 6.63428 46.4221 6.63428C48.404 6.63428 50.3859 7.4438 51.3071 9.70489C52.7866 7.36006 54.6848 6.69011 56.8342 6.69011C61.5239 6.69011 63.8408 9.56531 63.8408 14.5341V23.4668H59.7652V14.562C59.7652 12.3847 58.872 10.5423 56.6388 10.5423C54.4056 10.5423 53.0657 12.4405 53.0657 14.6179V23.4668H48.9344Z" fill="black"/>
<path d="M71.4614 6.94116V15.5668C71.4614 18.0791 72.8292 19.9773 75.4532 19.9773C77.9655 19.9773 79.6683 17.8558 79.6683 15.3435V6.94116H83.7159V23.4666H80.0591L79.78 21.2334C78.0772 22.9083 76.4861 23.7178 74.1971 23.7178C70.2332 23.7178 67.358 20.731 67.358 15.6226V6.94116H71.4614Z" fill="black"/>
<path d="M13.2315 48.5897V39.9361C13.2315 37.4238 11.8637 35.5256 9.23971 35.5256C6.7274 35.5256 5.02461 37.6471 5.02461 40.1595V48.5897H0.97699V32.0642H4.6338L4.91295 34.2974C6.58783 32.6504 8.2627 31.813 10.3284 31.813C14.2085 31.813 17.335 34.7161 17.335 39.9082V48.5897H13.2315Z" fill="black"/>
<path d="M43.8539 32.0643L44.161 33.9625C45.4451 31.9247 47.1479 31.6177 48.8227 31.6177C50.5255 31.6177 52.1725 32.2876 53.0658 33.1809L51.2234 36.726C50.386 36.0282 49.6044 35.6653 48.2645 35.6653C46.115 35.6653 44.1331 36.8098 44.1331 39.8525V48.5618H40.0576V32.0643H43.8539Z" fill="black"/>
<path d="M61.3843 27.4307V32.1203H65.9344V35.6376H61.3564V42.7558C61.3564 44.319 62.2218 45.1006 63.5058 45.1006C64.1479 45.1006 64.8737 44.9052 65.4878 44.5982L66.6323 48.0875C65.4599 48.562 64.4829 48.7574 63.2546 48.7853C59.6815 48.9249 57.3367 46.8872 57.3367 42.7558V35.6376H54.2661V32.1203H57.3367V27.8494L61.3843 27.4307Z" fill="black"/>
<path d="M73.0805 25.1416V34.3255C74.56 32.4273 76.3744 31.8411 78.2447 31.8411C82.9344 31.8411 85.0001 35.0234 85.0001 39.8805V48.5899H80.9245V39.9084C80.9245 36.8937 79.3613 35.6096 77.184 35.6096C74.7833 35.6096 73.1084 37.6473 73.1084 40.1317V48.562H69.0329V25.1416H73.0805Z" fill="black"/>
<path d="M36.0657 46.0215H22.1084V48.8129H36.0657V46.0215Z" fill="black"/>
<path d="M29.0871 43.2305C32.9413 43.2305 36.0657 40.1061 36.0657 36.2518C36.0657 32.3976 32.9413 29.2732 29.0871 29.2732C25.2328 29.2732 22.1084 32.3976 22.1084 36.2518C22.1084 40.1061 25.2328 43.2305 29.0871 43.2305Z" fill="#2CCACA"/>
</g>
<defs>
<clipPath id="clip0_203_125">
<rect width="85" height="48.7947" fill="white" transform="translate(0 0.0183105)"/>
</clipPath>
</defs>
</svg>
